<?xml version="1.0" encoding="UTF-8"?>
<svg id="Capa_1" data-name="Capa 1" xmlns="http://www.w3.org/2000/svg" viewBox="0 0 322.82 94.82">
  <defs>
    <style>
      .cls-1 {
        fill: #e4c0dc;
      }

      .cls-2 {
        fill: #ce1c83;
      }
    </style>
  </defs>
  <rect class="cls-2" width="322.82" height="94.82" rx="13.93" ry="13.93"/>
  <g>
    <g>
      <polygon class="cls-1" points="40.97 56.77 40.97 66.13 36.29 61.45 40.97 56.77"/>
      <polygon class="cls-1" points="40.97 47.4 40.97 56.77 36.29 52.09 40.97 47.4"/>
      <polygon class="cls-1" points="40.97 38.04 40.97 47.4 36.29 42.72 40.97 38.04"/>
      <polygon class="cls-1" points="40.97 28.68 40.97 38.04 36.29 33.36 40.97 28.68"/>
      <polygon class="cls-1" points="40.97 19.32 40.97 28.68 36.29 24 40.97 19.32"/>
      <polygon class="cls-1" points="40.97 28.68 36.29 33.36 31.61 28.68 40.97 28.68"/>
      <polygon class="cls-1" points="40.97 47.4 36.29 52.09 31.61 47.4 40.97 47.4"/>
      <polygon class="cls-1" points="40.97 56.77 36.29 61.45 31.61 56.77 40.97 56.77"/>
      <polygon class="cls-1" points="40.97 28.68 31.61 28.68 36.29 24 40.97 28.68"/>
      <polygon class="cls-1" points="40.97 38.04 36.29 42.72 31.61 38.04 40.97 38.04"/>
      <polygon class="cls-1" points="40.97 38.04 31.61 38.04 36.29 33.36 40.97 38.04"/>
      <polygon class="cls-1" points="40.97 47.4 31.61 47.4 36.29 42.72 40.97 47.4"/>
      <polygon class="cls-1" points="40.97 56.77 31.61 56.77 36.29 52.09 40.97 56.77"/>
      <polygon class="cls-1" points="40.97 66.13 36.29 70.81 31.61 66.13 40.97 66.13"/>
      <polygon class="cls-1" points="40.97 66.13 31.61 66.13 36.29 61.45 40.97 66.13"/>
      <polygon class="cls-1" points="36.29 33.36 31.61 38.04 31.61 28.68 36.29 33.36"/>
      <polygon class="cls-1" points="36.29 42.72 31.61 47.4 31.61 38.04 36.29 42.72"/>
      <polygon class="cls-1" points="36.29 52.09 31.61 56.77 31.61 47.4 36.29 52.09"/>
      <polygon class="cls-1" points="36.29 61.45 31.61 66.13 31.61 56.77 36.29 61.45"/>
      <polygon class="cls-1" points="36.29 70.81 31.61 75.49 31.61 66.13 36.29 70.81"/>
      <polygon class="cls-1" points="26.93 33.36 31.61 38.04 22.25 38.04 26.93 33.36"/>
      <polygon class="cls-1" points="31.61 38.04 26.93 42.72 22.25 38.04 31.61 38.04"/>
      <polygon class="cls-1" points="22.25 56.77 22.25 66.13 22.25 66.13 22.25 66.13 22.25 56.77 22.25 56.77"/>
      <polygon class="cls-1" points="22.25 28.68 22.25 38.04 22.25 38.04 22.25 38.04 22.25 28.68 22.25 28.68"/>
      <polygon class="cls-1" points="22.25 19.32 22.25 28.68 22.25 28.68 22.25 28.68 22.25 19.32 22.25 19.32"/>
      <polygon class="cls-1" points="22.25 28.68 22.25 28.68 22.25 28.68 22.25 28.68"/>
      <polygon class="cls-1" points="22.25 38.04 22.25 38.04 22.25 47.4 22.25 47.4 22.25 47.4 22.25 38.05 22.25 38.04"/>
      <polygon class="cls-1" points="22.25 47.4 22.25 47.4 22.25 47.41 22.25 47.4"/>
      <polygon class="cls-1" points="22.25 56.77 22.25 56.77 22.25 56.77 22.25 56.77"/>
      <polygon class="cls-1" points="22.25 75.48 22.25 75.49 12.89 75.49 17.57 70.81 22.25 75.48"/>
      <polygon class="cls-1" points="22.25 66.13 22.25 75.48 17.57 70.81 22.25 66.13"/>
      <polygon class="cls-1" points="22.25 66.13 22.25 66.13 17.57 70.81 12.89 66.13 22.25 66.13"/>
      <polygon class="cls-1" points="22.25 66.13 22.25 66.13 12.89 66.13 17.57 61.45 22.25 66.13"/>
      <polygon class="cls-1" points="22.25 56.77 22.25 66.13 17.57 61.45 22.25 56.77"/>
      <polygon class="cls-1" points="22.25 56.77 22.25 56.77 17.57 61.45 12.89 56.77 22.25 56.77"/>
      <polygon class="cls-1" points="22.25 56.76 22.25 56.77 12.89 56.77 17.57 52.09 22.25 56.76"/>
      <polygon class="cls-1" points="22.25 47.41 22.25 56.76 17.57 52.09 22.25 47.41"/>
      <polygon class="cls-1" points="22.25 47.4 22.25 47.41 17.57 52.09 12.89 47.4 22.25 47.4"/>
      <polygon class="cls-1" points="22.25 47.4 22.25 47.4 12.89 47.4 17.57 42.72 22.25 47.4"/>
      <polygon class="cls-1" points="22.25 38.05 22.25 47.4 17.57 42.72 22.25 38.05"/>
      <polygon class="cls-1" points="22.25 38.04 22.25 38.05 17.57 42.72 12.89 38.04 22.25 38.04"/>
      <polygon class="cls-1" points="22.25 38.04 22.25 38.04 12.89 38.04 17.57 33.36 22.25 38.04"/>
      <polygon class="cls-1" points="22.25 28.68 22.25 38.04 17.57 33.36 22.25 28.68"/>
      <polygon class="cls-1" points="22.25 28.68 22.25 28.68 17.57 33.36 12.89 28.68 22.25 28.68"/>
      <polygon class="cls-1" points="22.25 28.68 22.25 28.68 12.89 28.68 17.57 24 22.25 28.68"/>
      <polygon class="cls-1" points="17.57 24 12.89 28.68 12.89 19.32 17.57 24"/>
      <polygon class="cls-1" points="17.57 33.36 12.89 38.04 12.89 28.68 17.57 33.36"/>
      <polygon class="cls-1" points="17.57 42.72 12.89 47.4 12.89 38.04 17.57 42.72"/>
      <polygon class="cls-1" points="17.57 52.09 12.89 56.77 12.89 47.4 17.57 52.09"/>
      <polygon class="cls-1" points="17.57 61.45 12.89 66.13 12.89 56.77 17.57 61.45"/>
      <polygon class="cls-1" points="17.57 70.81 12.89 75.49 12.89 66.13 17.57 70.81"/>
    </g>
    <g>
      <polygon class="cls-1" points="75.06 66.13 75.06 66.13 65.7 66.13 65.7 66.13 75.06 66.13 75.06 66.13"/>
      <polygon class="cls-1" points="75.06 56.77 75.06 66.13 75.06 66.13 70.38 61.45 75.06 56.77"/>
      <polygon class="cls-1" points="75.06 47.4 75.06 56.77 70.38 52.09 75.06 47.4"/>
      <polygon class="cls-1" points="75.06 38.04 75.06 47.4 70.38 42.72 75.06 38.04"/>
      <polygon class="cls-1" points="75.06 38.04 75.06 38.04 65.7 38.04 65.7 38.04 75.06 38.04 75.06 38.04"/>
      <polygon class="cls-1" points="75.06 38.04 70.38 42.72 65.7 38.04 75.06 38.04"/>
      <polygon class="cls-1" points="75.06 47.4 70.38 52.09 65.7 47.4 75.06 47.4"/>
      <polygon class="cls-1" points="70.38 52.09 75.06 56.77 65.7 56.77 70.38 52.09"/>
      <polygon class="cls-1" points="75.06 56.77 70.38 61.45 65.7 56.77 75.06 56.77"/>
      <polygon class="cls-1" points="75.06 66.13 70.38 70.81 65.7 66.13 75.06 66.13"/>
      <polygon class="cls-1" points="75.06 47.4 65.7 47.4 70.38 42.72 75.06 47.4"/>
      <polygon class="cls-1" points="70.38 33.36 75.06 38.04 65.7 38.04 70.38 33.36"/>
      <polygon class="cls-1" points="70.38 61.45 75.06 66.13 65.7 66.13 70.38 61.45"/>
      <polygon class="cls-1" points="70.38 42.72 65.7 47.4 65.7 38.04 70.38 42.72"/>
      <polygon class="cls-1" points="65.7 47.4 70.38 52.09 65.7 56.77 65.7 47.4"/>
      <polygon class="cls-1" points="70.38 70.81 65.7 75.49 65.7 66.13 70.38 70.81"/>
      <polygon class="cls-1" points="70.38 61.45 65.7 66.13 65.7 56.77 70.38 61.45"/>
      <polygon class="cls-1" points="70.38 33.36 65.7 38.04 65.7 28.68 70.38 33.36"/>
      <polygon class="cls-1" points="65.7 47.4 65.7 56.77 65.7 56.77 65.7 56.76 65.7 47.41 65.7 47.4"/>
      <polygon class="cls-1" points="65.7 19.32 65.7 28.68 65.7 28.68 65.7 28.68 65.7 19.32 65.7 19.32"/>
      <polygon class="cls-1" points="65.7 28.68 65.7 38.04 65.7 38.04 65.7 28.68 65.7 28.68 65.7 28.68"/>
      <polygon class="cls-1" points="65.7 56.77 65.7 56.77 61.02 61.45 56.34 56.77 65.7 56.77"/>
      <polygon class="cls-1" points="65.7 56.76 65.7 56.77 56.34 56.77 61.02 52.09 65.7 56.76"/>
      <polygon class="cls-1" points="65.7 28.68 65.7 38.04 61.02 33.36 65.7 28.68"/>
      <polygon class="cls-1" points="65.7 28.68 65.7 28.68 61.02 33.36 56.34 28.68 65.7 28.68"/>
      <polygon class="cls-1" points="65.7 28.68 65.7 28.68 56.34 28.68 61.02 24 65.7 28.68"/>
      <polygon class="cls-1" points="61.02 24 56.34 28.68 56.34 19.32 61.02 24"/>
      <polygon class="cls-1" points="56.34 66.13 56.34 75.49 51.66 70.81 56.34 66.13"/>
      <polygon class="cls-1" points="56.34 66.13 56.34 66.13 56.33 66.13 56.34 66.13"/>
      <polygon class="cls-1" points="56.34 56.77 56.34 66.13 56.33 66.13 51.65 61.45 56.34 56.77"/>
      <polygon class="cls-1" points="56.34 47.4 56.34 56.77 51.66 52.09 56.34 47.4"/>
      <polygon class="cls-1" points="56.34 38.04 56.34 47.4 51.66 42.72 56.34 38.04"/>
      <polygon class="cls-1" points="56.34 38.04 56.34 38.04 56.33 38.04 56.34 38.04"/>
      <polygon class="cls-1" points="56.34 28.68 56.34 38.04 56.33 38.04 51.65 33.36 56.34 28.68"/>
      <polygon class="cls-1" points="56.34 19.32 56.34 28.68 51.66 24 56.34 19.32"/>
      <polygon class="cls-1" points="56.34 19.32 51.66 24 46.98 19.32 56.34 19.32"/>
      <polygon class="cls-1" points="56.34 47.4 51.66 52.09 46.98 47.4 56.34 47.4"/>
      <polygon class="cls-1" points="56.34 28.68 51.65 33.36 46.98 28.68 56.34 28.68"/>
      <polygon class="cls-1" points="56.34 28.68 46.98 28.68 51.66 24 56.34 28.68"/>
      <polygon class="cls-1" points="56.34 38.04 51.66 42.72 46.98 38.04 56.34 38.04"/>
      <rect class="cls-1" x="46.98" y="38.04" width="9.36" height="0"/>
      <polygon class="cls-1" points="56.34 47.4 46.98 47.4 51.66 42.72 56.34 47.4"/>
      <polygon class="cls-1" points="56.34 56.77 51.65 61.45 46.98 56.77 56.34 56.77"/>
      <polygon class="cls-1" points="56.34 56.77 46.98 56.77 51.66 52.09 56.34 56.77"/>
      <polygon class="cls-1" points="56.34 66.13 51.66 70.81 46.98 66.13 56.34 66.13"/>
      <rect class="cls-1" x="46.98" y="66.13" width="9.36" height="0"/>
      <polygon class="cls-1" points="56.34 75.49 46.98 75.49 51.66 70.81 56.34 75.49"/>
      <polygon class="cls-1" points="56.33 38.04 46.98 38.04 51.65 33.36 56.33 38.04"/>
      <polygon class="cls-1" points="56.33 66.13 46.98 66.13 51.65 61.45 56.33 66.13"/>
      <polygon class="cls-1" points="51.66 24 46.98 28.68 46.98 19.32 51.66 24"/>
      <polygon class="cls-1" points="51.66 42.72 46.98 47.4 46.98 38.04 51.66 42.72"/>
      <polygon class="cls-1" points="51.66 52.09 46.98 56.77 46.98 47.4 51.66 52.09"/>
      <polygon class="cls-1" points="51.66 70.81 46.98 75.49 46.98 66.13 51.66 70.81"/>
      <polygon class="cls-1" points="51.65 33.36 46.98 38.04 46.98 28.68 51.65 33.36"/>
      <polygon class="cls-1" points="51.65 61.45 46.98 66.13 46.98 56.77 51.65 61.45"/>
    </g>
    <g>
      <polygon class="cls-1" points="307.84 66.13 298.48 66.13 298.48 66.12 307.84 66.12 307.84 66.12 307.84 66.13"/>
      <polygon class="cls-1" points="307.84 56.76 307.84 66.12 307.84 66.12 303.16 61.44 307.84 56.76"/>
      <polygon class="cls-1" points="307.84 47.4 307.84 56.76 303.16 52.08 307.84 47.4"/>
      <polygon class="cls-1" points="307.84 38.04 307.84 47.4 303.16 42.72 307.84 38.04"/>
      <polygon class="cls-1" points="307.84 38.04 307.84 38.04 298.48 38.04 298.48 38.04 307.84 38.04 307.84 38.04"/>
      <polygon class="cls-1" points="307.84 38.04 303.16 42.72 298.48 38.04 307.84 38.04"/>
      <polygon class="cls-1" points="307.84 47.4 303.16 52.08 298.48 47.4 307.84 47.4"/>
      <polygon class="cls-1" points="303.16 52.08 307.84 56.76 298.48 56.76 303.16 52.08"/>
      <polygon class="cls-1" points="307.84 56.76 303.16 61.44 298.48 56.76 307.84 56.76"/>
      <polygon class="cls-1" points="307.84 66.13 303.16 70.81 298.48 66.13 307.84 66.13"/>
      <polygon class="cls-1" points="307.84 47.4 298.48 47.4 303.16 42.72 307.84 47.4"/>
      <polygon class="cls-1" points="303.16 33.36 307.84 38.04 298.48 38.04 303.16 33.36"/>
      <polygon class="cls-1" points="303.16 61.44 307.84 66.12 298.48 66.12 303.16 61.44"/>
      <polygon class="cls-1" points="303.16 42.72 298.48 47.4 298.48 38.04 303.16 42.72"/>
      <polygon class="cls-1" points="298.48 47.4 303.16 52.08 298.48 56.76 298.48 47.4"/>
      <polygon class="cls-1" points="303.16 70.81 298.48 75.49 298.48 66.13 303.16 70.81"/>
      <polygon class="cls-1" points="303.16 61.44 298.48 66.12 298.48 56.76 303.16 61.44"/>
      <polygon class="cls-1" points="303.16 33.36 298.48 38.04 298.48 28.68 303.16 33.36"/>
      <polygon class="cls-1" points="298.48 47.4 298.48 56.76 298.48 56.76 298.48 56.76 298.48 47.4 298.48 47.4"/>
      <polygon class="cls-1" points="298.48 19.32 298.48 28.68 298.48 28.68 298.48 28.68 298.48 19.32 298.48 19.32"/>
      <polygon class="cls-1" points="298.48 28.68 298.48 28.68 298.48 38.04 298.48 38.04 298.48 28.68 298.48 28.68"/>
      <polygon class="cls-1" points="298.48 56.76 298.48 56.77 293.8 61.44 289.12 56.76 298.48 56.76"/>
      <polygon class="cls-1" points="298.48 56.76 298.48 56.76 289.12 56.76 293.8 52.08 298.48 56.76"/>
      <polygon class="cls-1" points="298.48 28.68 298.48 38.04 293.8 33.36 298.48 28.68"/>
      <polygon class="cls-1" points="298.48 28.68 298.48 28.68 293.8 33.36 289.12 28.68 298.48 28.68"/>
      <polygon class="cls-1" points="298.48 28.68 298.48 28.68 289.12 28.68 293.8 24 298.48 28.68"/>
      <polygon class="cls-1" points="293.8 24 289.12 28.68 289.12 19.32 293.8 24"/>
      <polygon class="cls-1" points="289.12 66.13 289.12 75.49 284.44 70.81 289.12 66.13"/>
      <polygon class="cls-1" points="289.12 66.13 289.12 66.12 289.12 66.12 289.12 66.13"/>
      <polygon class="cls-1" points="289.12 56.76 289.12 66.12 289.12 66.12 284.44 61.44 289.12 56.76"/>
      <polygon class="cls-1" points="289.12 47.4 289.12 56.76 284.44 52.08 289.12 47.4"/>
      <polygon class="cls-1" points="289.12 38.04 289.12 47.4 284.44 42.72 289.12 38.04"/>
      <polygon class="cls-1" points="289.12 38.04 289.12 38.04 289.12 38.04 289.12 38.04"/>
      <polygon class="cls-1" points="289.12 28.68 289.12 38.04 289.12 38.04 284.44 33.36 289.12 28.68"/>
      <polygon class="cls-1" points="289.12 19.32 289.12 28.68 284.44 24 289.12 19.32"/>
      <polygon class="cls-1" points="289.12 19.32 284.44 24 279.76 19.32 289.12 19.32"/>
      <polygon class="cls-1" points="289.12 47.4 284.44 52.08 279.76 47.4 289.12 47.4"/>
      <polygon class="cls-1" points="289.12 28.68 284.44 33.36 279.76 28.68 289.12 28.68"/>
      <polygon class="cls-1" points="289.12 28.68 279.76 28.68 284.44 24 289.12 28.68"/>
      <polygon class="cls-1" points="289.12 38.04 284.44 42.72 279.76 38.04 289.12 38.04"/>
      <rect class="cls-1" x="279.76" y="38.04" width="9.36" height="0"/>
      <polygon class="cls-1" points="289.12 47.4 279.76 47.4 284.44 42.72 289.12 47.4"/>
      <polygon class="cls-1" points="289.12 56.76 284.44 61.44 279.76 56.76 289.12 56.76"/>
      <polygon class="cls-1" points="289.12 56.76 279.76 56.76 284.44 52.08 289.12 56.76"/>
      <polygon class="cls-1" points="289.12 66.13 284.44 70.81 279.76 66.13 289.12 66.13"/>
      <rect class="cls-1" x="279.76" y="66.12" width="9.36" height="0"/>
      <polygon class="cls-1" points="289.12 75.49 279.76 75.49 284.44 70.81 289.12 75.49"/>
      <polygon class="cls-1" points="289.12 38.04 279.76 38.04 284.44 33.36 289.12 38.04"/>
      <polygon class="cls-1" points="289.12 66.12 279.76 66.12 284.44 61.44 289.12 66.12"/>
      <polygon class="cls-1" points="284.44 24 279.76 28.68 279.76 19.32 284.44 24"/>
      <polygon class="cls-1" points="284.44 42.72 279.76 47.4 279.76 38.04 284.44 42.72"/>
      <polygon class="cls-1" points="284.44 52.08 279.76 56.76 279.76 47.4 284.44 52.08"/>
      <polygon class="cls-1" points="284.44 70.81 279.76 75.49 279.76 66.13 284.44 70.81"/>
      <polygon class="cls-1" points="284.44 33.36 279.76 38.04 279.76 28.68 284.44 33.36"/>
      <polygon class="cls-1" points="284.44 61.44 279.76 66.12 279.76 56.76 284.44 61.44"/>
    </g>
    <g>
      <polygon class="cls-1" points="109.15 38.04 109.15 47.4 104.47 42.72 109.15 38.04"/>
      <polygon class="cls-1" points="109.15 38.04 109.15 38.04 109.15 38.04 109.15 38.04"/>
      <polygon class="cls-1" points="109.15 28.68 109.15 38.04 109.15 38.04 104.47 33.36 109.15 28.68"/>
      <polygon class="cls-1" points="109.15 28.68 104.47 33.36 99.79 28.68 109.15 28.68"/>
      <polygon class="cls-1" points="109.15 47.4 104.47 52.09 99.79 47.4 109.15 47.4"/>
      <polygon class="cls-1" points="109.15 28.68 99.79 28.68 104.47 24 109.15 28.68"/>
      <polygon class="cls-1" points="109.15 38.04 104.47 42.72 99.79 38.04 109.15 38.04"/>
      <rect class="cls-1" x="99.79" y="38.04" width="9.36" height="0"/>
      <polygon class="cls-1" points="109.15 47.4 99.79 47.4 104.47 42.72 109.15 47.4"/>
      <polygon class="cls-1" points="109.15 38.04 99.79 38.04 104.47 33.36 109.15 38.04"/>
      <polygon class="cls-1" points="104.47 24 99.79 28.68 99.79 19.32 104.47 24"/>
      <polygon class="cls-1" points="104.47 33.36 99.79 38.04 99.79 38.04 99.79 28.68 104.47 33.36"/>
      <polygon class="cls-1" points="104.47 42.72 99.79 47.4 99.79 38.04 104.47 42.72"/>
      <polygon class="cls-1" points="104.47 52.09 99.79 56.77 99.79 47.4 104.47 52.09"/>
      <polygon class="cls-1" points="99.79 38.04 99.79 38.04 99.79 38.04 99.79 38.04"/>
      <polygon class="cls-1" points="99.79 47.4 99.79 56.77 95.11 52.09 99.79 47.4"/>
      <polygon class="cls-1" points="95.11 52.09 99.79 56.77 90.43 56.77 95.11 52.09"/>
      <polygon class="cls-1" points="99.79 56.77 95.11 61.45 90.43 56.77 99.79 56.77"/>
      <polygon class="cls-1" points="90.43 47.4 95.11 52.09 90.43 56.77 90.43 47.4"/>
      <polygon class="cls-1" points="90.43 56.77 95.11 61.45 90.43 66.13 90.43 66.13 90.43 56.77"/>
      <polygon class="cls-1" points="90.43 66.13 90.43 66.13 90.42 66.13 90.43 66.13"/>
      <polygon class="cls-1" points="90.43 56.77 90.43 66.13 90.42 66.13 85.75 61.45 90.43 56.77"/>
      <polygon class="cls-1" points="90.43 47.4 90.43 56.77 85.75 52.09 90.43 47.4"/>
      <polygon class="cls-1" points="90.43 38.04 90.43 47.4 85.75 42.72 90.43 38.04"/>
      <polygon class="cls-1" points="90.43 38.04 90.43 38.04 90.42 38.04 90.43 38.04"/>
      <polygon class="cls-1" points="90.43 28.68 90.43 38.04 90.42 38.04 85.75 33.36 90.43 28.68"/>
      <polygon class="cls-1" points="90.43 28.68 85.75 33.36 81.06 28.68 90.43 28.68"/>
      <polygon class="cls-1" points="90.43 47.4 85.75 52.09 81.06 47.4 90.43 47.4"/>
      <polygon class="cls-1" points="90.43 28.68 81.06 28.68 85.75 24 90.43 28.68"/>
      <polygon class="cls-1" points="90.43 38.04 85.75 42.72 81.06 38.04 90.43 38.04"/>
      <rect class="cls-1" x="81.07" y="38.04" width="9.36" height="0"/>
      <polygon class="cls-1" points="90.43 47.4 81.06 47.4 85.75 42.72 90.43 47.4"/>
      <polygon class="cls-1" points="90.43 66.13 85.75 70.81 81.06 66.13 90.43 66.13"/>
      <rect class="cls-1" x="81.07" y="66.12" width="9.36" height="0"/>
      <polygon class="cls-1" points="90.42 38.04 81.07 38.04 85.75 33.36 90.42 38.04"/>
      <polygon class="cls-1" points="90.42 66.13 81.07 66.13 85.75 61.45 90.42 66.13"/>
      <polygon class="cls-1" points="85.75 24 81.06 28.68 81.06 19.32 85.75 24"/>
      <polygon class="cls-1" points="85.75 33.36 81.07 38.04 81.06 38.04 81.06 28.68 85.75 33.36"/>
      <polygon class="cls-1" points="85.75 42.72 81.06 47.4 81.06 38.04 85.75 42.72"/>
      <polygon class="cls-1" points="85.75 70.81 81.06 75.49 81.06 66.13 85.75 70.81"/>
      <polygon class="cls-1" points="81.07 38.04 81.06 38.04 81.06 38.04 81.07 38.04"/>
    </g>
    <g>
      <polygon class="cls-1" points="142.19 56.66 142.19 65.92 137.56 61.29 142.19 56.66"/>
      <polygon class="cls-1" points="142.19 47.4 142.19 56.66 137.56 52.03 142.19 47.4"/>
      <polygon class="cls-1" points="142.19 38.15 142.19 47.4 137.56 42.77 142.19 38.15"/>
      <polygon class="cls-1" points="142.19 28.89 142.19 38.15 137.56 33.52 142.19 28.89"/>
      <polygon class="cls-1" points="137.56 24.26 142.19 28.89 132.94 28.89 137.56 24.26"/>
      <polygon class="cls-1" points="142.19 28.89 137.56 33.52 132.94 28.89 142.19 28.89"/>
      <polygon class="cls-1" points="137.56 33.52 142.19 38.15 132.94 38.15 137.56 33.52"/>
      <polygon class="cls-1" points="142.19 38.15 137.56 42.77 132.94 38.15 142.19 38.15"/>
      <polygon class="cls-1" points="142.19 47.4 137.56 52.03 132.94 47.41 132.94 47.4 142.19 47.4"/>
      <polygon class="cls-1" points="142.19 56.66 137.56 61.29 132.94 56.66 142.19 56.66"/>
      <polygon class="cls-1" points="137.56 61.29 142.19 65.92 132.94 65.92 137.56 61.29"/>
      <polygon class="cls-1" points="142.19 65.92 137.56 70.55 132.94 65.92 142.19 65.92"/>
      <polygon class="cls-1" points="142.19 47.4 132.94 47.4 137.56 42.77 142.19 47.4"/>
      <polygon class="cls-1" points="142.19 56.66 132.94 56.66 137.56 52.03 142.19 56.66"/>
      <polygon class="cls-1" points="132.94 19.63 137.56 24.26 132.94 28.89 132.94 19.63"/>
      <polygon class="cls-1" points="132.94 28.89 137.56 33.52 132.94 38.15 132.94 28.89"/>
      <polygon class="cls-1" points="137.56 42.77 132.94 47.4 132.94 38.15 137.56 42.77"/>
      <polygon class="cls-1" points="132.94 56.66 137.56 61.29 132.94 65.92 132.94 56.66"/>
      <polygon class="cls-1" points="137.56 70.55 132.94 75.18 132.94 65.92 137.56 70.55"/>
      <polygon class="cls-1" points="137.56 52.03 132.94 56.66 132.94 47.41 137.56 52.03"/>
      <polygon class="cls-1" points="132.94 65.92 132.94 75.18 128.31 70.55 132.94 65.92"/>
      <polygon class="cls-1" points="132.94 65.92 128.31 70.55 123.68 65.92 132.94 65.92"/>
      <polygon class="cls-1" points="132.94 75.18 123.68 75.18 128.31 70.55 132.94 75.18"/>
      <polygon class="cls-1" points="128.31 70.55 123.68 75.18 123.68 65.92 128.31 70.55"/>
      <polygon class="cls-1" points="123.68 65.92 123.68 75.18 119.05 70.55 123.68 65.92"/>
      <polygon class="cls-1" points="123.68 56.66 123.68 65.92 119.05 61.29 123.68 56.66"/>
      <polygon class="cls-1" points="123.68 47.41 123.68 56.66 119.05 52.03 123.68 47.41"/>
      <polygon class="cls-1" points="123.68 47.4 123.68 47.41 119.05 52.03 114.42 47.41 114.42 47.4 123.68 47.4"/>
      <polygon class="cls-1" points="123.68 38.15 123.68 47.4 119.05 42.77 123.68 38.15"/>
      <polygon class="cls-1" points="123.68 28.89 123.68 38.15 119.05 33.52 123.68 28.89"/>
      <polygon class="cls-1" points="123.68 28.89 119.05 33.52 114.42 28.89 123.68 28.89"/>
      <polygon class="cls-1" points="123.68 56.66 119.05 61.29 114.42 56.66 123.68 56.66"/>
      <polygon class="cls-1" points="123.68 28.89 114.42 28.89 119.05 24.26 123.68 28.89"/>
      <polygon class="cls-1" points="123.68 38.15 119.05 42.77 114.42 38.15 123.68 38.15"/>
      <polygon class="cls-1" points="123.68 38.15 114.42 38.15 119.05 33.52 123.68 38.15"/>
      <polygon class="cls-1" points="123.68 47.4 114.42 47.4 119.05 42.77 123.68 47.4"/>
      <polygon class="cls-1" points="123.68 56.66 114.42 56.66 119.05 52.03 123.68 56.66"/>
      <polygon class="cls-1" points="123.68 65.92 119.05 70.55 114.42 65.92 123.68 65.92"/>
      <polygon class="cls-1" points="123.68 65.92 114.42 65.92 119.05 61.29 123.68 65.92"/>
      <polygon class="cls-1" points="123.68 75.18 114.42 75.18 119.05 70.55 123.68 75.18"/>
      <polygon class="cls-1" points="119.05 24.26 114.42 28.89 114.42 19.63 119.05 24.26"/>
      <polygon class="cls-1" points="119.05 33.52 114.42 38.15 114.42 28.89 119.05 33.52"/>
      <polygon class="cls-1" points="119.05 42.77 114.42 47.4 114.42 38.15 119.05 42.77"/>
      <polygon class="cls-1" points="119.05 61.29 114.42 65.92 114.42 56.66 119.05 61.29"/>
      <polygon class="cls-1" points="119.05 70.55 114.42 75.18 114.42 65.92 119.05 70.55"/>
      <polygon class="cls-1" points="114.42 47.41 119.05 52.03 114.42 56.66 114.42 47.41"/>
    </g>
    <g>
      <polygon class="cls-1" points="243.73 56.66 243.73 65.92 239.1 61.3 243.73 56.66"/>
      <polygon class="cls-1" points="243.73 47.41 243.73 56.66 239.1 52.04 243.73 47.41"/>
      <polygon class="cls-1" points="243.73 38.15 243.73 47.41 239.1 42.78 243.73 38.15"/>
      <polygon class="cls-1" points="243.73 28.89 243.73 38.15 239.1 33.52 243.73 28.89"/>
      <polygon class="cls-1" points="239.1 24.26 243.73 28.89 234.47 28.89 239.1 24.26"/>
      <polygon class="cls-1" points="243.73 28.89 239.1 33.52 234.47 28.89 243.73 28.89"/>
      <polygon class="cls-1" points="239.1 33.52 243.73 38.15 234.47 38.15 239.1 33.52"/>
      <polygon class="cls-1" points="243.73 38.15 239.1 42.78 234.47 38.15 243.73 38.15"/>
      <polygon class="cls-1" points="243.73 47.41 239.1 52.04 234.47 47.41 234.47 47.41 243.73 47.41"/>
      <polygon class="cls-1" points="243.73 56.66 239.1 61.3 234.47 56.66 243.73 56.66"/>
      <polygon class="cls-1" points="239.1 61.3 243.73 65.92 234.47 65.92 239.1 61.3"/>
      <polygon class="cls-1" points="243.73 65.92 239.1 70.55 234.47 65.92 243.73 65.92"/>
      <polygon class="cls-1" points="243.73 47.41 234.47 47.41 239.1 42.78 243.73 47.41"/>
      <polygon class="cls-1" points="243.73 56.66 234.47 56.66 239.1 52.04 243.73 56.66"/>
      <polygon class="cls-1" points="234.47 19.63 239.1 24.26 234.47 28.89 234.47 19.63"/>
      <polygon class="cls-1" points="234.47 28.89 239.1 33.52 234.47 38.15 234.47 28.89"/>
      <polygon class="cls-1" points="239.1 42.78 234.47 47.41 234.47 38.15 239.1 42.78"/>
      <polygon class="cls-1" points="234.47 56.66 239.1 61.3 234.47 65.92 234.47 56.66"/>
      <polygon class="cls-1" points="239.1 70.55 234.47 75.18 234.47 65.92 239.1 70.55"/>
      <polygon class="cls-1" points="239.1 52.04 234.47 56.66 234.47 47.41 239.1 52.04"/>
      <polygon class="cls-1" points="234.47 65.92 234.47 75.18 229.84 70.55 234.47 65.92"/>
      <polygon class="cls-1" points="234.47 65.92 229.84 70.55 225.21 65.92 234.47 65.92"/>
      <polygon class="cls-1" points="234.47 75.18 225.21 75.18 229.84 70.55 234.47 75.18"/>
      <polygon class="cls-1" points="229.84 70.55 225.21 75.18 225.21 65.92 229.84 70.55"/>
      <polygon class="cls-1" points="225.21 65.92 225.21 75.18 220.58 70.55 225.21 65.92"/>
      <polygon class="cls-1" points="225.21 56.66 225.21 65.92 220.58 61.3 225.21 56.66"/>
      <polygon class="cls-1" points="225.21 47.41 225.21 56.66 220.58 52.04 225.21 47.41"/>
      <polygon class="cls-1" points="225.21 47.41 225.21 47.41 220.58 52.04 215.95 47.41 215.95 47.41 225.21 47.41"/>
      <polygon class="cls-1" points="225.21 38.15 225.21 47.41 220.58 42.78 225.21 38.15"/>
      <polygon class="cls-1" points="225.21 28.89 225.21 38.15 220.58 33.52 225.21 28.89"/>
      <polygon class="cls-1" points="225.21 28.89 220.58 33.52 215.95 28.89 225.21 28.89"/>
      <polygon class="cls-1" points="225.21 56.66 220.58 61.3 215.95 56.66 225.21 56.66"/>
      <polygon class="cls-1" points="225.21 28.89 215.95 28.89 220.58 24.26 225.21 28.89"/>
      <polygon class="cls-1" points="225.21 38.15 220.58 42.78 215.95 38.15 225.21 38.15"/>
      <polygon class="cls-1" points="225.21 38.15 215.95 38.15 220.58 33.52 225.21 38.15"/>
      <polygon class="cls-1" points="225.21 47.41 215.95 47.41 220.58 42.78 225.21 47.41"/>
      <polygon class="cls-1" points="225.21 56.66 215.95 56.66 220.58 52.04 225.21 56.66"/>
      <polygon class="cls-1" points="225.21 65.92 220.58 70.55 215.95 65.92 225.21 65.92"/>
      <polygon class="cls-1" points="225.21 65.92 215.95 65.92 220.58 61.3 225.21 65.92"/>
      <polygon class="cls-1" points="225.21 75.18 215.95 75.18 220.58 70.55 225.21 75.18"/>
      <polygon class="cls-1" points="220.58 24.26 215.95 28.89 215.95 19.63 220.58 24.26"/>
      <polygon class="cls-1" points="220.58 33.52 215.95 38.15 215.95 28.89 220.58 33.52"/>
      <polygon class="cls-1" points="220.58 42.78 215.95 47.41 215.95 38.15 220.58 42.78"/>
      <polygon class="cls-1" points="220.58 61.3 215.95 65.92 215.95 56.66 220.58 61.3"/>
      <polygon class="cls-1" points="220.58 70.55 215.95 75.18 215.95 65.92 220.58 70.55"/>
      <polygon class="cls-1" points="215.95 47.41 220.58 52.04 215.95 56.66 215.95 47.41"/>
    </g>
    <g>
      <polygon class="cls-1" points="176.04 56.66 176.04 65.92 171.41 61.29 176.04 56.66"/>
      <polygon class="cls-1" points="176.04 47.4 176.04 56.66 171.41 52.03 176.04 47.4"/>
      <polygon class="cls-1" points="171.41 24.26 176.04 28.89 166.78 28.89 171.41 24.26"/>
      <polygon class="cls-1" points="171.41 42.78 176.04 47.4 166.78 47.4 171.41 42.78"/>
      <polygon class="cls-1" points="176.04 47.4 171.41 52.03 166.78 47.4 176.04 47.4"/>
      <polygon class="cls-1" points="171.41 52.03 176.04 56.66 166.78 56.66 171.41 52.03"/>
      <polygon class="cls-1" points="176.04 56.66 171.41 61.29 166.78 56.66 176.04 56.66"/>
      <polygon class="cls-1" points="176.04 65.92 171.41 70.55 166.78 65.92 176.04 65.92"/>
      <polygon class="cls-1" points="176.04 65.92 166.78 65.92 171.41 61.29 176.04 65.92"/>
      <polygon class="cls-1" points="166.78 19.63 171.41 24.26 166.78 28.89 166.78 19.63"/>
      <polygon class="cls-1" points="166.78 38.14 171.41 42.78 166.78 47.4 166.78 38.14"/>
      <polygon class="cls-1" points="166.78 47.4 171.41 52.03 166.78 56.66 166.78 47.4"/>
      <polygon class="cls-1" points="171.41 61.29 166.78 65.92 166.78 56.66 171.41 61.29"/>
      <polygon class="cls-1" points="166.78 65.92 171.41 70.55 166.78 75.18 166.78 65.92"/>
      <polygon class="cls-1" points="166.78 65.92 166.78 75.18 162.15 70.55 166.78 65.92"/>
      <polygon class="cls-1" points="166.78 38.14 166.78 47.4 162.15 42.78 166.78 38.14"/>
      <polygon class="cls-1" points="166.78 19.63 166.78 28.89 162.15 24.26 166.78 19.63"/>
      <polygon class="cls-1" points="166.78 19.63 162.15 24.26 157.52 19.63 166.78 19.63"/>
      <polygon class="cls-1" points="166.78 38.14 162.15 42.78 157.52 38.14 166.78 38.14"/>
      <polygon class="cls-1" points="166.78 65.92 162.15 70.55 157.52 65.92 166.78 65.92"/>
      <polygon class="cls-1" points="166.78 28.89 157.52 28.89 162.15 24.26 166.78 28.89"/>
      <polygon class="cls-1" points="166.78 47.4 157.52 47.4 162.15 42.78 166.78 47.4"/>
      <polygon class="cls-1" points="166.78 75.18 157.52 75.18 162.15 70.55 166.78 75.18"/>
      <polygon class="cls-1" points="162.15 24.26 157.52 28.89 157.52 19.63 162.15 24.26"/>
      <polygon class="cls-1" points="162.15 42.78 157.52 47.4 157.52 38.14 162.15 42.78"/>
      <polygon class="cls-1" points="162.15 70.55 157.52 75.18 157.52 65.92 162.15 70.55"/>
      <polygon class="cls-1" points="157.52 65.92 157.52 75.18 152.89 70.55 157.52 65.92"/>
      <polygon class="cls-1" points="157.52 38.14 157.52 47.4 152.89 42.78 157.52 38.14"/>
      <polygon class="cls-1" points="157.52 28.89 157.52 38.14 152.89 33.52 157.52 28.89"/>
      <polygon class="cls-1" points="157.52 19.63 157.52 28.89 152.89 24.26 157.52 19.63"/>
      <polygon class="cls-1" points="157.52 38.14 152.89 42.78 148.26 38.14 157.52 38.14"/>
      <polygon class="cls-1" points="157.52 28.89 152.89 33.52 148.26 28.89 157.52 28.89"/>
      <polygon class="cls-1" points="157.52 28.89 148.26 28.89 152.89 24.26 157.52 28.89"/>
      <polygon class="cls-1" points="157.52 38.14 148.26 38.14 152.89 33.52 157.52 38.14"/>
      <polygon class="cls-1" points="157.52 75.18 148.26 75.18 152.89 70.55 157.52 75.18"/>
      <polygon class="cls-1" points="152.89 33.52 148.26 38.14 148.26 28.89 152.89 33.52"/>
    </g>
    <g>
      <polygon class="cls-1" points="209.88 65.92 209.88 65.92 205.26 70.55 200.62 65.92 209.88 65.92"/>
      <polygon class="cls-1" points="209.88 65.92 209.88 65.92 200.62 65.92 205.26 61.29 209.88 65.92"/>
      <polygon class="cls-1" points="209.88 56.66 209.88 65.92 205.26 61.29 209.88 56.66"/>
      <polygon class="cls-1" points="209.88 38.15 209.88 47.4 205.26 42.78 209.88 38.15"/>
      <polygon class="cls-1" points="209.88 38.15 209.88 38.15 205.26 42.78 200.62 38.15 209.88 38.15"/>
      <polygon class="cls-1" points="209.88 38.14 209.88 38.15 200.62 38.15 205.26 33.52 209.88 38.14"/>
      <polygon class="cls-1" points="205.26 33.52 200.62 38.15 200.62 28.89 205.26 33.52"/>
      <polygon class="cls-1" points="205.26 70.55 200.62 75.18 200.62 65.92 205.26 70.55"/>
      <polygon class="cls-1" points="200.62 65.92 200.62 75.18 196 70.55 200.62 65.92"/>
      <polygon class="cls-1" points="200.62 28.89 200.62 38.15 196 33.52 200.62 28.89"/>
      <polygon class="cls-1" points="200.62 28.89 196 33.52 191.37 28.89 200.62 28.89"/>
      <polygon class="cls-1" points="200.62 65.92 196 70.55 191.37 65.92 200.62 65.92"/>
      <polygon class="cls-1" points="200.62 28.89 191.37 28.89 196 24.26 200.62 28.89"/>
      <polygon class="cls-1" points="200.62 75.18 191.37 75.18 196 70.55 200.62 75.18"/>
      <polygon class="cls-1" points="196 24.26 191.37 28.89 191.37 19.63 196 24.26"/>
      <polygon class="cls-1" points="196 70.55 191.37 75.18 191.37 65.92 196 70.55"/>
      <polygon class="cls-1" points="191.37 65.92 191.37 75.18 186.74 70.55 191.37 65.92"/>
      <polygon class="cls-1" points="191.37 56.66 191.37 65.92 186.74 61.29 191.37 56.66"/>
      <polygon class="cls-1" points="191.37 47.4 191.37 56.66 186.74 52.03 191.37 47.4"/>
      <polygon class="cls-1" points="191.37 38.15 191.37 47.4 186.74 42.78 191.37 38.15"/>
      <polygon class="cls-1" points="191.37 28.89 191.37 38.15 186.74 33.52 191.37 28.89"/>
      <polygon class="cls-1" points="191.37 19.63 191.37 28.89 186.74 24.26 191.37 19.63"/>
      <polygon class="cls-1" points="191.37 19.63 186.74 24.26 182.11 19.63 191.37 19.63"/>
      <polygon class="cls-1" points="191.37 28.89 186.74 33.52 182.11 28.89 191.37 28.89"/>
      <polygon class="cls-1" points="186.74 33.52 191.37 38.15 182.11 38.15 186.74 33.52"/>
      <polygon class="cls-1" points="191.37 38.15 186.74 42.78 182.11 38.15 191.37 38.15"/>
      <polygon class="cls-1" points="186.74 42.78 191.37 47.4 182.11 47.4 186.74 42.78"/>
      <polygon class="cls-1" points="191.37 47.4 186.74 52.03 182.11 47.4 191.37 47.4"/>
      <polygon class="cls-1" points="191.37 56.66 186.74 61.29 182.11 56.66 191.37 56.66"/>
      <polygon class="cls-1" points="186.74 61.29 191.37 65.92 182.11 65.92 186.74 61.29"/>
      <polygon class="cls-1" points="191.37 65.92 186.74 70.55 182.11 65.92 191.37 65.92"/>
      <polygon class="cls-1" points="186.74 70.55 191.37 75.18 182.11 75.18 186.74 70.55"/>
      <polygon class="cls-1" points="191.37 28.89 182.11 28.89 186.74 24.26 191.37 28.89"/>
      <polygon class="cls-1" points="191.37 56.66 182.11 56.66 186.74 52.03 191.37 56.66"/>
      <polygon class="cls-1" points="186.74 24.26 182.11 28.89 182.11 19.63 186.74 24.26"/>
      <polygon class="cls-1" points="182.11 28.89 186.74 33.52 182.11 38.15 182.11 28.89"/>
      <polygon class="cls-1" points="182.11 38.15 186.74 42.78 182.11 47.4 182.11 38.15"/>
      <polygon class="cls-1" points="186.74 52.03 182.11 56.66 182.11 47.4 186.74 52.03"/>
      <polygon class="cls-1" points="182.11 56.66 186.74 61.29 182.11 65.92 182.11 56.66"/>
      <polygon class="cls-1" points="182.11 65.92 186.74 70.55 182.11 75.18 182.11 65.92"/>
    </g>
    <g>
      <polygon class="cls-1" points="277.57 65.92 272.94 70.55 268.31 65.92 277.57 65.92"/>
      <polygon class="cls-1" points="272.94 70.55 268.31 75.18 268.31 65.92 272.94 70.55"/>
      <polygon class="cls-1" points="268.31 65.92 268.31 75.18 263.69 70.55 268.31 65.92"/>
      <polygon class="cls-1" points="268.31 65.92 263.69 70.55 259.05 65.92 268.31 65.92"/>
      <polygon class="cls-1" points="268.31 75.18 259.05 75.18 263.69 70.55 268.31 75.18"/>
      <polygon class="cls-1" points="263.69 70.55 259.05 75.18 259.05 65.92 263.69 70.55"/>
      <polygon class="cls-1" points="259.05 65.92 259.05 75.18 254.43 70.55 259.05 65.92"/>
      <polygon class="cls-1" points="259.05 56.66 259.05 65.92 259.05 65.92 254.43 61.29 259.05 56.66"/>
      <polygon class="cls-1" points="259.05 47.4 259.05 56.66 254.43 52.03 259.05 47.4"/>
      <polygon class="cls-1" points="259.05 38.15 259.05 47.4 254.43 42.78 259.05 38.15"/>
      <polygon class="cls-1" points="259.05 28.89 259.05 38.14 259.05 38.14 254.43 33.52 259.05 28.89"/>
      <polygon class="cls-1" points="254.43 24.26 259.05 28.89 249.8 28.89 254.43 24.26"/>
      <polygon class="cls-1" points="259.05 28.89 254.43 33.52 249.8 28.89 259.05 28.89"/>
      <polygon class="cls-1" points="259.05 38.14 259.05 38.15 249.8 38.15 249.8 38.14 259.05 38.14 259.05 38.14"/>
      <polygon class="cls-1" points="259.05 38.15 254.43 42.78 249.8 38.15 259.05 38.15"/>
      <polygon class="cls-1" points="259.05 47.4 254.43 52.03 249.8 47.4 259.05 47.4"/>
      <polygon class="cls-1" points="254.43 52.03 259.05 56.66 249.8 56.66 254.43 52.03"/>
      <polygon class="cls-1" points="259.05 56.66 254.43 61.29 249.8 56.66 259.05 56.66"/>
      <polygon class="cls-1" points="259.05 65.92 259.05 65.92 249.8 65.92 249.8 65.92 259.05 65.92 259.05 65.92"/>
      <polygon class="cls-1" points="259.05 65.92 254.43 70.55 249.8 65.92 259.05 65.92"/>
      <polygon class="cls-1" points="259.05 47.4 249.8 47.4 254.43 42.78 259.05 47.4"/>
      <polygon class="cls-1" points="259.05 75.18 249.8 75.18 254.43 70.55 259.05 75.18"/>
      <polygon class="cls-1" points="254.43 33.52 259.05 38.14 249.8 38.14 254.43 33.52"/>
      <polygon class="cls-1" points="254.43 61.29 259.05 65.92 249.8 65.92 254.43 61.29"/>
      <polygon class="cls-1" points="249.8 19.63 254.43 24.26 249.8 28.89 249.8 19.63"/>
      <polygon class="cls-1" points="254.43 42.78 249.8 47.4 249.8 38.15 254.43 42.78"/>
      <polygon class="cls-1" points="249.8 47.4 254.43 52.03 249.8 56.66 249.8 47.4"/>
      <polygon class="cls-1" points="254.43 70.55 249.8 75.18 249.8 65.92 254.43 70.55"/>
      <polygon class="cls-1" points="254.43 61.29 249.8 65.92 249.8 56.66 254.43 61.29"/>
      <polygon class="cls-1" points="254.43 33.52 249.8 38.14 249.8 28.89 254.43 33.52"/>
    </g>
  </g>
</svg>