<?xml version="1.0" encoding="UTF-8"?>
<svg id="Capa_1" data-name="Capa 1" xmlns="http://www.w3.org/2000/svg" viewBox="0 0 322.82 94.82">
  <defs>
    <style>
      .cls-1 {
        fill: #e4c0dc;
      }

      .cls-2 {
        fill: #ce1c83;
      }
    </style>
  </defs>
  <rect class="cls-1" width="322.82" height="94.82" rx="13.93" ry="13.93"/>
  <g>
    <g>
      <polygon class="cls-2" points="69.23 57.86 69.23 67.09 64.61 62.48 69.23 57.86"/>
      <polygon class="cls-2" points="69.23 48.63 69.23 57.86 64.61 53.24 69.23 48.63"/>
      <polygon class="cls-2" points="69.23 39.4 69.23 48.63 69.22 48.63 64.61 44.01 69.23 39.4"/>
      <polygon class="cls-2" points="64.61 34.78 69.23 39.4 60 39.4 64.61 34.78"/>
      <polygon class="cls-2" points="69.23 39.4 64.61 44.01 60 39.4 69.23 39.4"/>
      <polygon class="cls-2" points="69.23 48.63 69.23 48.63 60 48.63 60 48.63 69.22 48.63 69.23 48.63"/>
      <polygon class="cls-2" points="69.23 48.63 64.61 53.24 60 48.63 69.23 48.63"/>
      <polygon class="cls-2" points="69.23 57.86 64.61 62.48 60 57.86 69.23 57.86"/>
      <polygon class="cls-2" points="64.61 62.48 69.23 67.09 60 67.09 64.61 62.48"/>
      <polygon class="cls-2" points="69.23 57.86 60 57.86 64.61 53.24 69.23 57.86"/>
      <polygon class="cls-2" points="64.61 44.01 69.22 48.63 60 48.63 64.61 44.01"/>
      <polygon class="cls-2" points="60 30.16 64.61 34.78 60 39.4 60 30.16"/>
      <polygon class="cls-2" points="64.61 53.24 60 57.86 60 48.63 64.61 53.24"/>
      <polygon class="cls-2" points="60 57.86 64.61 62.48 60 67.09 60 57.86"/>
      <polygon class="cls-2" points="64.61 44.01 60 48.63 60 39.4 64.61 44.01"/>
      <polygon class="cls-2" points="60 30.16 60 39.4 55.38 34.78 60 30.16"/>
      <polygon class="cls-2" points="60 39.4 55.38 44.01 50.77 39.4 60 39.4"/>
      <polygon class="cls-2" points="60 39.4 50.77 39.4 55.38 34.78 60 39.4"/>
      <polygon class="cls-2" points="55.38 34.78 50.77 39.4 50.77 30.16 55.38 34.78"/>
      <polygon class="cls-2" points="55.38 44.01 50.77 48.63 50.77 39.4 55.38 44.01"/>
      <polygon class="cls-2" points="50.77 30.16 50.77 39.4 46.15 34.78 50.77 30.16"/>
      <polygon class="cls-2" points="50.77 39.4 46.15 44.01 41.53 39.4 50.77 39.4"/>
      <polygon class="cls-2" points="50.77 39.4 41.53 39.4 46.15 34.78 50.77 39.4"/>
      <polygon class="cls-2" points="46.15 44.01 41.53 48.63 41.53 39.4 46.15 44.01"/>
      <polygon class="cls-2" points="41.53 57.86 41.53 67.09 36.92 62.48 41.53 57.86"/>
      <polygon class="cls-2" points="41.53 48.63 41.53 57.86 36.92 53.24 41.53 48.63"/>
      <polygon class="cls-2" points="41.53 39.4 41.53 48.63 41.53 48.63 36.92 44.01 41.53 39.4"/>
      <polygon class="cls-2" points="36.92 34.78 41.53 39.4 32.31 39.4 36.92 34.78"/>
      <polygon class="cls-2" points="41.53 39.4 36.92 44.01 32.31 39.4 41.53 39.4"/>
      <polygon class="cls-2" points="41.53 48.63 41.53 48.63 32.31 48.63 32.31 48.63 41.53 48.63 41.53 48.63"/>
      <polygon class="cls-2" points="41.53 48.63 36.92 53.24 32.31 48.63 41.53 48.63"/>
      <polygon class="cls-2" points="41.53 57.86 36.92 62.48 32.31 57.86 41.53 57.86"/>
      <polygon class="cls-2" points="36.92 62.48 41.53 67.09 32.31 67.09 36.92 62.48"/>
      <polygon class="cls-2" points="41.53 57.86 32.31 57.86 36.92 53.24 41.53 57.86"/>
      <polygon class="cls-2" points="36.92 44.01 41.53 48.63 32.31 48.63 36.92 44.01"/>
      <polygon class="cls-2" points="32.31 30.16 36.92 34.78 32.31 39.4 32.31 30.16"/>
      <polygon class="cls-2" points="36.92 53.24 32.31 57.86 32.31 48.63 36.92 53.24"/>
      <polygon class="cls-2" points="32.31 57.86 36.92 62.48 32.31 67.09 32.31 57.86"/>
      <polygon class="cls-2" points="36.92 44.01 32.31 48.63 32.31 39.4 36.92 44.01"/>
    </g>
    <g>
      <polygon class="cls-2" points="256.58 67.09 247.34 67.09 251.96 62.48 256.58 67.09"/>
      <polygon class="cls-2" points="251.96 62.48 247.34 67.09 247.34 57.86 251.96 62.48"/>
      <polygon class="cls-2" points="247.34 57.86 247.34 67.09 242.73 62.48 247.34 57.86"/>
      <polygon class="cls-2" points="247.34 48.63 247.34 57.86 242.73 53.25 247.34 48.63"/>
      <polygon class="cls-2" points="247.34 48.63 247.34 48.63 247.34 48.63 247.34 48.63"/>
      <polygon class="cls-2" points="247.34 39.4 247.34 48.63 247.34 48.63 242.73 44.01 247.34 39.4"/>
      <polygon class="cls-2" points="247.34 30.17 247.34 39.4 242.73 34.78 247.34 30.17"/>
      <polygon class="cls-2" points="247.34 20.94 247.34 30.17 242.73 25.55 247.34 20.94"/>
      <polygon class="cls-2" points="247.34 20.93 247.34 20.94 247.34 20.93 247.34 20.93"/>
      <polygon class="cls-2" points="247.34 30.17 242.73 34.78 238.11 30.17 247.34 30.17"/>
      <polygon class="cls-2" points="247.34 57.86 242.73 62.48 238.11 57.86 247.34 57.86"/>
      <polygon class="cls-2" points="247.34 20.94 242.73 25.55 238.11 20.94 247.34 20.94"/>
      <rect class="cls-2" x="238.11" y="20.93" width="9.23" height="0"/>
      <polygon class="cls-2" points="247.34 30.17 238.11 30.17 242.73 25.55 247.34 30.17"/>
      <polygon class="cls-2" points="247.34 39.4 242.73 44.01 238.11 39.4 247.34 39.4"/>
      <polygon class="cls-2" points="247.34 39.4 238.11 39.4 242.73 34.78 247.34 39.4"/>
      <polygon class="cls-2" points="247.34 48.63 242.73 53.25 238.11 48.63 247.34 48.63"/>
      <rect class="cls-2" x="238.11" y="48.63" width="9.23" height="0"/>
      <polygon class="cls-2" points="247.34 57.86 238.11 57.86 242.73 53.25 247.34 57.86"/>
      <polygon class="cls-2" points="247.34 20.93 238.11 20.93 242.73 16.32 247.34 20.93"/>
      <polygon class="cls-2" points="247.34 48.63 238.11 48.63 242.73 44.01 247.34 48.63"/>
      <polygon class="cls-2" points="242.73 25.55 238.11 30.17 238.11 20.94 242.73 25.55"/>
      <polygon class="cls-2" points="242.73 34.78 238.11 39.4 238.11 30.17 242.73 34.78"/>
      <polygon class="cls-2" points="242.73 53.25 238.11 57.86 238.11 48.63 242.73 53.25"/>
      <polygon class="cls-2" points="242.73 16.32 238.11 20.93 238.11 11.71 242.73 16.32"/>
      <polygon class="cls-2" points="242.73 44.01 238.11 48.63 238.11 39.4 242.73 44.01"/>
    </g>
    <g>
      <polygon class="cls-2" points="234.84 57.86 234.84 57.86 230.22 62.47 225.61 57.86 225.61 57.86 234.84 57.86"/>
      <polygon class="cls-2" points="234.84 48.63 234.84 57.86 230.22 53.24 234.84 48.63"/>
      <polygon class="cls-2" points="230.22 44.01 234.84 48.63 225.61 48.63 230.22 44.01"/>
      <polygon class="cls-2" points="234.84 48.63 230.22 53.24 225.61 48.63 234.84 48.63"/>
      <polygon class="cls-2" points="234.84 57.86 225.61 57.86 230.22 53.24 234.84 57.86"/>
      <polygon class="cls-2" points="225.61 39.39 230.22 44.01 225.61 48.63 225.61 39.39"/>
      <polygon class="cls-2" points="230.22 53.24 225.61 57.86 225.61 48.63 230.22 53.24"/>
      <polygon class="cls-2" points="230.22 62.47 225.61 67.09 225.61 57.86 230.22 62.47"/>
      <polygon class="cls-2" points="225.61 57.86 225.61 67.09 220.99 62.47 225.61 57.86"/>
      <polygon class="cls-2" points="225.61 57.86 225.61 57.86 220.99 62.47 216.38 57.86 216.38 57.86 225.61 57.86"/>
      <polygon class="cls-2" points="225.61 67.09 216.38 67.09 220.99 62.47 225.61 67.09"/>
      <polygon class="cls-2" points="216.38 57.86 220.99 62.47 216.38 67.09 216.38 57.86"/>
      <polygon class="cls-2" points="216.38 57.86 216.38 67.09 211.76 62.47 216.38 57.86"/>
      <polygon class="cls-2" points="216.38 57.86 216.38 57.86 211.76 62.47 207.14 57.86 207.14 57.86 216.38 57.86"/>
      <polygon class="cls-2" points="216.38 48.63 216.38 57.86 211.76 53.24 216.38 48.63"/>
      <polygon class="cls-2" points="216.38 39.39 216.38 48.63 211.76 44.01 216.38 39.39"/>
      <polygon class="cls-2" points="216.38 39.39 211.76 44.01 207.14 39.39 216.38 39.39"/>
      <polygon class="cls-2" points="216.38 39.39 207.14 39.39 211.76 34.78 216.38 39.39"/>
      <polygon class="cls-2" points="216.38 48.63 211.76 53.24 207.14 48.63 216.38 48.63"/>
      <polygon class="cls-2" points="216.38 48.63 207.14 48.63 211.76 44.01 216.38 48.63"/>
      <polygon class="cls-2" points="216.38 57.86 207.14 57.86 211.76 53.24 216.38 57.86"/>
      <polygon class="cls-2" points="216.38 67.09 207.14 67.09 211.76 62.47 216.38 67.09"/>
      <polygon class="cls-2" points="211.76 44.01 207.14 48.63 207.14 39.39 211.76 44.01"/>
      <polygon class="cls-2" points="211.76 53.24 207.14 57.86 207.14 48.63 211.76 53.24"/>
      <polygon class="cls-2" points="207.14 30.17 211.76 34.78 207.14 39.39 207.14 30.17"/>
      <polygon class="cls-2" points="207.14 57.86 211.76 62.47 207.14 67.09 207.14 57.86"/>
    </g>
    <g>
      <polygon class="cls-2" points="144.89 57.86 144.89 57.86 140.28 62.47 135.66 57.86 135.66 57.86 144.89 57.86"/>
      <polygon class="cls-2" points="144.89 48.63 144.89 57.86 140.28 53.24 144.89 48.63"/>
      <polygon class="cls-2" points="140.28 44.01 144.89 48.63 135.66 48.63 140.28 44.01"/>
      <polygon class="cls-2" points="144.89 48.63 140.28 53.24 135.66 48.63 144.89 48.63"/>
      <polygon class="cls-2" points="144.89 57.86 135.66 57.86 140.28 53.24 144.89 57.86"/>
      <polygon class="cls-2" points="135.66 39.39 140.28 44.01 135.66 48.63 135.66 39.39"/>
      <polygon class="cls-2" points="140.28 53.24 135.66 57.86 135.66 48.63 140.28 53.24"/>
      <polygon class="cls-2" points="140.28 62.47 135.66 67.09 135.66 57.86 140.28 62.47"/>
      <polygon class="cls-2" points="135.66 57.86 135.66 67.09 131.05 62.47 135.66 57.86"/>
      <polygon class="cls-2" points="135.66 57.86 135.66 57.86 131.05 62.47 126.43 57.86 126.43 57.86 135.66 57.86"/>
      <polygon class="cls-2" points="135.66 67.09 126.43 67.09 131.05 62.47 135.66 67.09"/>
      <polygon class="cls-2" points="126.43 57.86 131.05 62.47 126.43 67.09 126.43 57.86"/>
      <polygon class="cls-2" points="126.43 57.86 126.43 67.09 121.81 62.47 126.43 57.86"/>
      <polygon class="cls-2" points="126.43 57.86 126.43 57.86 121.81 62.47 117.2 57.86 117.2 57.86 126.43 57.86"/>
      <polygon class="cls-2" points="126.43 48.63 126.43 57.86 121.82 53.24 126.43 48.63"/>
      <polygon class="cls-2" points="126.43 39.39 126.43 48.63 121.82 44.01 126.43 39.39"/>
      <polygon class="cls-2" points="126.43 39.39 121.82 44.01 117.2 39.39 126.43 39.39"/>
      <polygon class="cls-2" points="126.43 39.39 117.2 39.39 121.81 34.78 126.43 39.39"/>
      <polygon class="cls-2" points="126.43 48.63 121.82 53.24 117.2 48.63 126.43 48.63"/>
      <polygon class="cls-2" points="126.43 48.63 117.2 48.63 121.82 44.01 126.43 48.63"/>
      <polygon class="cls-2" points="126.43 57.86 117.2 57.86 121.82 53.24 126.43 57.86"/>
      <polygon class="cls-2" points="126.43 67.09 117.2 67.09 121.81 62.47 126.43 67.09"/>
      <polygon class="cls-2" points="121.82 44.01 117.2 48.63 117.2 39.39 121.82 44.01"/>
      <polygon class="cls-2" points="121.82 53.24 117.2 57.86 117.2 48.63 121.82 53.24"/>
      <polygon class="cls-2" points="117.2 30.17 121.81 34.78 117.2 39.39 117.2 30.17"/>
      <polygon class="cls-2" points="117.2 57.86 121.81 62.47 117.2 67.09 117.2 57.86"/>
    </g>
    <g>
      <polygon class="cls-2" points="169.77 34.78 174.38 39.4 165.15 39.4 169.77 34.78"/>
      <polygon class="cls-2" points="174.38 57.86 169.77 62.48 165.15 57.86 174.38 57.86"/>
      <polygon class="cls-2" points="174.38 57.86 165.15 57.86 169.77 53.24 174.38 57.86"/>
      <polygon class="cls-2" points="165.15 30.16 169.77 34.78 165.15 39.4 165.15 30.16"/>
      <polygon class="cls-2" points="169.77 53.24 165.15 57.86 165.15 48.63 169.77 53.24"/>
      <polygon class="cls-2" points="165.15 57.86 169.77 62.48 165.15 67.09 165.15 57.86"/>
      <polygon class="cls-2" points="165.15 57.86 165.15 67.09 160.54 62.48 165.15 57.86"/>
      <polygon class="cls-2" points="165.15 48.63 165.15 57.86 160.54 53.24 165.15 48.63"/>
      <polygon class="cls-2" points="165.15 30.16 165.15 39.4 160.54 34.78 165.15 30.16"/>
      <polygon class="cls-2" points="165.15 30.16 160.54 34.78 155.92 30.16 165.15 30.16"/>
      <polygon class="cls-2" points="165.15 48.63 160.54 53.24 155.92 48.63 165.15 48.63"/>
      <polygon class="cls-2" points="165.15 48.63 155.92 48.63 160.54 44.01 165.15 48.63"/>
      <polygon class="cls-2" points="165.15 67.09 155.92 67.09 160.54 62.48 165.15 67.09"/>
      <polygon class="cls-2" points="160.54 34.78 155.92 39.4 155.92 30.16 160.54 34.78"/>
      <polygon class="cls-2" points="160.54 44.01 155.92 48.63 155.92 39.4 160.54 44.01"/>
      <polygon class="cls-2" points="160.54 62.48 155.92 67.09 155.92 57.86 160.54 62.48"/>
      <polygon class="cls-2" points="155.92 57.86 155.92 67.09 151.3 62.48 155.92 57.86"/>
      <polygon class="cls-2" points="155.92 39.4 155.92 48.63 151.3 44.01 155.92 39.4"/>
      <polygon class="cls-2" points="155.92 30.16 155.92 39.4 151.3 34.78 155.92 30.16"/>
      <polygon class="cls-2" points="155.92 39.4 151.3 44.01 146.69 39.4 155.92 39.4"/>
      <polygon class="cls-2" points="155.92 57.86 151.3 62.48 146.69 57.86 155.92 57.86"/>
      <polygon class="cls-2" points="155.92 39.4 146.69 39.4 151.3 34.78 155.92 39.4"/>
    </g>
    <g>
      <polygon class="cls-2" points="203.87 39.4 194.64 39.4 199.25 34.78 203.87 39.4"/>
      <polygon class="cls-2" points="203.87 67.09 194.64 67.09 199.25 62.48 203.87 67.09"/>
      <polygon class="cls-2" points="199.25 34.78 194.64 39.4 194.64 30.16 199.25 34.78"/>
      <polygon class="cls-2" points="199.25 62.48 194.64 67.09 194.64 57.86 199.25 62.48"/>
      <polygon class="cls-2" points="194.64 57.86 194.64 67.09 190.02 62.48 194.64 57.86"/>
      <polygon class="cls-2" points="194.64 30.16 194.64 39.4 190.02 34.78 194.64 30.16"/>
      <polygon class="cls-2" points="194.64 30.16 190.02 34.78 185.41 30.16 194.64 30.16"/>
      <polygon class="cls-2" points="190.02 34.78 194.64 39.4 185.41 39.4 190.02 34.78"/>
      <polygon class="cls-2" points="194.64 57.86 190.02 62.48 185.41 57.86 194.64 57.86"/>
      <polygon class="cls-2" points="190.02 62.48 194.64 67.09 185.41 67.09 190.02 62.48"/>
      <polygon class="cls-2" points="185.41 30.16 190.02 34.78 185.41 39.4 185.41 30.16"/>
      <polygon class="cls-2" points="185.41 57.86 190.02 62.48 185.41 67.09 185.41 57.86"/>
      <polygon class="cls-2" points="185.41 39.4 185.41 48.63 185.4 48.63 185.4 48.62 185.4 39.4 185.4 39.4 185.41 39.4"/>
      <polygon class="cls-2" points="185.41 30.16 185.41 39.4 185.4 39.4 185.4 39.39 185.4 30.17 185.41 30.16"/>
      <polygon class="cls-2" points="185.41 48.63 185.4 48.63 185.4 48.63 185.41 48.63"/>
      <polygon class="cls-2" points="185.4 57.86 185.4 67.09 180.79 62.48 185.4 57.86"/>
      <polygon class="cls-2" points="185.4 57.86 185.4 57.86 180.79 62.48 176.18 57.86 185.4 57.86"/>
      <polygon class="cls-2" points="185.4 57.85 185.4 57.86 176.18 57.86 180.79 53.24 185.4 57.85"/>
      <polygon class="cls-2" points="185.4 48.63 185.4 57.85 180.79 53.24 185.4 48.63"/>
      <polygon class="cls-2" points="185.4 48.63 185.4 48.63 180.79 53.24 176.18 48.63 185.4 48.63"/>
      <polygon class="cls-2" points="185.4 48.62 185.4 48.63 176.18 48.63 180.79 44.01 185.4 48.62"/>
      <polygon class="cls-2" points="185.4 39.4 185.4 48.62 180.79 44.01 185.4 39.4"/>
      <polygon class="cls-2" points="185.4 39.4 185.4 39.4 180.79 44.01 176.18 39.4 185.4 39.4"/>
      <polygon class="cls-2" points="185.4 39.39 185.4 39.4 176.18 39.4 180.79 34.78 185.4 39.39"/>
      <polygon class="cls-2" points="185.4 30.17 185.4 39.39 180.79 34.78 185.4 30.17"/>
      <polygon class="cls-2" points="180.79 44.01 176.18 48.63 176.18 39.4 180.79 44.01"/>
      <polygon class="cls-2" points="180.79 53.24 176.18 57.86 176.18 48.63 180.79 53.24"/>
    </g>
    <g>
      <polygon class="cls-2" points="278.09 57.86 278.09 67.09 273.48 62.48 278.09 57.86"/>
      <polygon class="cls-2" points="278.09 48.63 278.09 57.86 273.48 53.24 278.09 48.63"/>
      <polygon class="cls-2" points="278.09 48.63 278.09 48.63 278.09 48.63 278.09 48.63"/>
      <polygon class="cls-2" points="278.09 39.4 278.09 48.63 278.09 48.63 273.47 44.01 278.09 39.4"/>
      <polygon class="cls-2" points="278.09 57.86 273.48 62.48 268.86 57.86 278.09 57.86"/>
      <polygon class="cls-2" points="278.09 39.4 273.47 44.01 268.86 39.4 278.09 39.4"/>
      <polygon class="cls-2" points="278.09 39.4 268.86 39.4 273.48 34.78 278.09 39.4"/>
      <polygon class="cls-2" points="278.09 48.63 273.48 53.24 268.86 48.63 278.09 48.63"/>
      <rect class="cls-2" x="268.86" y="48.62" width="9.23" height="0"/>
      <polygon class="cls-2" points="278.09 57.86 268.86 57.86 273.48 53.24 278.09 57.86"/>
      <polygon class="cls-2" points="278.09 67.09 268.86 67.09 273.48 62.48 278.09 67.09"/>
      <polygon class="cls-2" points="278.09 48.63 268.86 48.63 273.47 44.01 278.09 48.63"/>
      <polygon class="cls-2" points="273.48 34.78 268.86 39.4 268.86 30.16 273.48 34.78"/>
      <polygon class="cls-2" points="273.48 53.24 268.86 57.86 268.86 48.63 273.48 53.24"/>
      <polygon class="cls-2" points="273.48 62.48 268.86 67.09 268.86 57.86 273.48 62.48"/>
      <polygon class="cls-2" points="273.47 44.01 268.86 48.63 268.86 39.4 273.47 44.01"/>
      <polygon class="cls-2" points="268.86 48.63 268.86 57.86 264.24 53.24 268.86 48.63"/>
      <polygon class="cls-2" points="268.86 30.16 268.86 39.4 264.24 34.78 268.86 30.16"/>
      <polygon class="cls-2" points="268.86 30.16 264.24 34.78 259.63 30.16 268.86 30.16"/>
      <polygon class="cls-2" points="264.24 34.78 268.86 39.4 259.63 39.4 264.24 34.78"/>
      <polygon class="cls-2" points="268.86 48.63 264.24 53.24 259.63 48.63 268.86 48.63"/>
      <polygon class="cls-2" points="264.24 62.48 268.86 67.09 259.63 67.09 264.24 62.48"/>
      <polygon class="cls-2" points="259.63 30.16 264.24 34.78 259.63 39.4 259.63 30.16"/>
      <polygon class="cls-2" points="259.63 57.86 264.24 62.48 259.63 67.09 259.63 57.86"/>
      <polygon class="cls-2" points="259.63 57.86 259.63 67.09 255.01 62.48 259.63 57.86"/>
      <polygon class="cls-2" points="259.63 48.63 259.63 48.63 259.63 48.63 259.63 48.63"/>
      <polygon class="cls-2" points="259.63 30.16 259.63 39.4 255.01 34.78 259.63 30.16"/>
      <polygon class="cls-2" points="259.63 57.86 255.01 62.48 250.4 57.86 259.63 57.86"/>
      <polygon class="cls-2" points="259.63 39.4 250.4 39.4 255.01 34.78 259.63 39.4"/>
      <polygon class="cls-2" points="259.63 48.63 255.01 53.24 250.4 48.63 259.63 48.63"/>
      <polygon class="cls-2" points="259.63 57.86 250.4 57.86 255.01 53.24 259.63 57.86"/>
      <polygon class="cls-2" points="255.01 53.24 250.4 57.86 250.4 48.63 255.01 53.24"/>
    </g>
    <g>
      <polygon class="cls-2" points="113.34 57.86 113.34 67.09 108.73 62.48 113.34 57.86"/>
      <polygon class="cls-2" points="113.34 48.63 113.34 57.86 108.73 53.24 113.34 48.63"/>
      <polygon class="cls-2" points="113.34 39.4 113.34 48.63 108.73 44.01 113.34 39.4"/>
      <polygon class="cls-2" points="113.34 39.4 108.73 44.01 104.11 39.4 113.34 39.4"/>
      <polygon class="cls-2" points="113.34 57.86 108.73 62.48 104.11 57.86 113.34 57.86"/>
      <polygon class="cls-2" points="113.34 39.4 104.11 39.4 108.73 34.78 113.34 39.4"/>
      <polygon class="cls-2" points="113.34 48.63 108.73 53.24 104.11 48.63 113.34 48.63"/>
      <polygon class="cls-2" points="113.34 48.63 104.11 48.63 108.73 44.01 113.34 48.63"/>
      <polygon class="cls-2" points="113.34 57.86 104.11 57.86 108.73 53.24 113.34 57.86"/>
      <polygon class="cls-2" points="108.73 34.78 104.11 39.4 104.11 30.16 108.73 34.78"/>
      <polygon class="cls-2" points="108.73 44.01 104.11 48.63 104.11 39.4 108.73 44.01"/>
      <polygon class="cls-2" points="108.73 53.24 104.11 57.86 104.11 48.63 108.73 53.24"/>
      <polygon class="cls-2" points="104.11 30.16 104.11 39.4 99.5 34.78 104.11 30.16"/>
      <polygon class="cls-2" points="104.11 39.4 99.5 44.01 94.88 39.4 104.11 39.4"/>
      <polygon class="cls-2" points="104.11 39.4 94.88 39.4 99.5 34.78 104.11 39.4"/>
      <polygon class="cls-2" points="99.5 44.01 94.88 48.63 94.88 39.4 99.5 44.01"/>
      <polygon class="cls-2" points="94.88 57.86 94.88 67.09 90.27 62.48 94.88 57.86"/>
      <polygon class="cls-2" points="94.88 48.63 94.88 57.86 90.27 53.24 94.88 48.63"/>
      <polygon class="cls-2" points="94.88 39.4 94.88 48.63 90.27 44.01 94.88 39.4"/>
      <polygon class="cls-2" points="90.27 34.78 94.88 39.4 85.65 39.4 90.27 34.78"/>
      <polygon class="cls-2" points="94.88 39.4 90.27 44.01 85.65 39.4 94.88 39.4"/>
      <polygon class="cls-2" points="90.27 44.01 94.88 48.63 85.65 48.63 90.27 44.01"/>
      <polygon class="cls-2" points="94.88 48.63 90.27 53.24 85.65 48.63 94.88 48.63"/>
      <polygon class="cls-2" points="94.88 57.86 90.27 62.48 85.65 57.86 94.88 57.86"/>
      <polygon class="cls-2" points="90.27 62.48 94.88 67.09 85.65 67.09 90.27 62.48"/>
      <polygon class="cls-2" points="94.88 57.86 85.65 57.86 90.27 53.24 94.88 57.86"/>
      <polygon class="cls-2" points="85.65 30.16 90.27 34.78 85.65 39.4 85.65 30.16"/>
      <polygon class="cls-2" points="85.65 39.4 90.27 44.01 85.65 48.63 85.65 39.4"/>
      <polygon class="cls-2" points="90.27 53.24 85.65 57.86 85.65 48.63 90.27 53.24"/>
      <polygon class="cls-2" points="85.65 57.86 90.27 62.48 85.65 67.09 85.65 57.86"/>
    </g>
    <g>
      <polygon class="cls-2" points="81.8 57.86 81.8 67.09 77.18 62.47 81.8 57.86"/>
      <polygon class="cls-2" points="81.8 48.63 81.8 57.86 77.18 53.24 81.8 48.63"/>
      <polygon class="cls-2" points="81.8 30.17 81.8 39.39 77.18 34.78 81.8 30.17"/>
      <polygon class="cls-2" points="81.8 30.17 77.18 34.78 72.57 30.17 81.8 30.17"/>
      <polygon class="cls-2" points="77.18 44.01 81.8 48.63 72.57 48.63 77.18 44.01"/>
      <polygon class="cls-2" points="81.8 48.63 77.18 53.24 72.57 48.63 81.8 48.63"/>
      <polygon class="cls-2" points="77.18 53.24 81.8 57.86 72.57 57.86 77.18 53.24"/>
      <polygon class="cls-2" points="81.8 57.86 77.18 62.47 72.57 57.86 81.8 57.86"/>
      <polygon class="cls-2" points="81.8 67.09 72.57 67.09 77.18 62.47 81.8 67.09"/>
      <polygon class="cls-2" points="72.57 39.39 77.18 44.01 72.57 48.63 72.57 39.39"/>
      <polygon class="cls-2" points="72.57 48.63 77.18 53.24 72.57 57.86 72.57 48.63"/>
      <polygon class="cls-2" points="77.18 62.47 72.57 67.09 72.57 57.86 77.18 62.47"/>
    </g>
  </g>
</svg>